<svg width="72" height="72" viewBox="0 0 72 72" fill="none" xmlns="http://www.w3.org/2000/svg">
<g filter="url(#filter0_f_567_1280)">
<path d="M56.6349 21.8049C53.0793 16.6262 46.1267 14 35.9738 14H35.9572C25.8197 14.0028 18.8842 16.6302 15.344 21.8089C12.3797 26.1438 12 31.6699 12 35.9997C12 40.3295 12.3797 45.8556 15.3435 50.1905C18.8836 55.3687 25.8191 57.996 35.9572 58H35.9772C46.1296 58 53.0793 55.3744 56.6349 50.1956C59.6169 45.8511 60 40.3272 60 36.0003C60 31.6733 59.6181 26.1495 56.6354 21.8055H56.6349V21.8049Z" fill="url(#paint0_linear_567_1280)"/>
</g>
<path d="M55.7755 22.4505C52.368 17.5071 45.705 15 35.9749 15H35.9585C26.2431 15.0028 19.5964 17.5105 16.2042 22.4538C13.364 26.5918 13 31.8671 13 36C13 40.1329 13.364 45.4077 16.2042 49.5456C19.597 54.4884 26.2436 56.9966 35.959 57H35.9777C45.7072 57 52.3674 54.4934 55.7748 49.5501C58.6331 45.4032 59 40.1301 59 36C59 31.8699 58.6337 26.5974 55.7755 22.4505Z" fill="#0B0B11"/>
<path d="M36.6544 44.1005C36.4522 43.9217 36.2412 43.7423 36.0397 43.5436C35.8786 43.6925 35.7276 43.832 35.5678 43.971C33.5733 45.6904 31.5173 46.4062 30.2986 45.7103C29.1197 45.0443 28.7483 43.077 29.2201 40.6019C29.2705 40.3336 29.3309 40.0653 29.4014 39.797C29.1898 39.7347 28.9882 39.6774 28.7867 39.6102C26.2771 38.7536 24.625 37.3625 24.625 35.9707C24.625 34.6295 26.1666 33.3275 28.5744 32.4927C28.844 32.403 29.1285 32.3139 29.421 32.2342C29.3536 31.9756 29.3003 31.7271 29.2498 31.4866C28.7456 28.9741 29.0981 26.9669 30.2872 26.291C31.5261 25.5752 33.582 26.3408 35.6467 28.1394C35.7674 28.2484 35.8887 28.368 36.0195 28.487C36.2109 28.3082 36.3922 28.1294 36.5836 27.9705C38.5384 26.2885 40.4825 25.5852 41.6715 26.2611C42.9105 26.9563 43.2738 29.1031 42.7197 31.757C42.6894 31.9264 42.6523 32.0853 42.6091 32.2553C42.8612 32.3251 43.1127 32.4042 43.3446 32.484C45.8029 33.3188 47.395 34.6208 47.3748 35.9919C47.3748 37.393 45.6721 38.7747 43.0608 39.6295C42.9199 39.6693 42.779 39.7192 42.6375 39.7584C42.6981 39.9571 42.7379 40.1559 42.7783 40.3546C43.3021 42.9287 42.899 45.0356 41.6803 45.7315C41.3602 45.9096 40.9921 46.0003 40.6186 45.9931C39.5017 45.9913 38.0835 45.3116 36.6544 44.1005ZM38.6294 40.453C38.0507 41.2851 37.4146 42.0818 36.7252 42.8384C36.9166 43.0253 37.1081 43.1966 37.2995 43.3555C38.9618 44.7665 40.4932 45.2935 41.2091 44.8861C41.4277 44.7121 41.6063 44.4993 41.7344 44.2604C41.8625 44.0214 41.9373 43.7612 41.9546 43.495C42.1001 42.5088 42.059 41.5067 41.8333 40.5334C41.803 40.3546 41.7659 40.1758 41.7126 39.9871C40.6975 40.2066 39.6674 40.3623 38.6294 40.453ZM30.1861 40.7714C29.7735 42.8895 30.0755 44.4681 30.7927 44.8761C31.0468 44.9743 31.3212 45.0196 31.5963 45.0088C31.8715 44.998 32.1407 44.9315 32.3849 44.8138C33.3349 44.4448 34.2001 43.9118 34.9342 43.2433C35.0852 43.1237 35.2261 42.9848 35.3777 42.8459C34.6731 42.0891 34.0203 41.2924 33.4229 40.4605C32.3889 40.3807 31.3621 40.235 30.3499 40.0244C30.2872 40.2842 30.2366 40.5322 30.1861 40.7714ZM36.0505 42.1625C36.494 41.6753 36.9369 41.1389 37.3804 40.5427C36.9369 40.5627 36.4738 40.5726 36.01 40.5726C35.5463 40.5726 35.1135 40.5627 34.6801 40.5427C35.1331 41.1283 35.5874 41.6753 36.0505 42.1625ZM33.9339 32.4628C33.551 33.0091 33.1783 33.5841 32.8257 34.1922C32.4732 34.7883 32.1516 35.3945 31.8584 35.9988C32.1611 36.595 32.4833 37.2011 32.8358 37.8179C33.1884 38.414 33.5611 39.0015 33.944 39.5566C34.6086 39.5964 35.3043 39.6189 36.0093 39.6189C36.7144 39.6189 37.4195 39.5989 38.0949 39.5497C38.4576 39.0034 38.8303 38.4165 39.1835 37.8104C39.5367 37.2042 39.8684 36.5881 40.1609 35.9919C39.8684 35.4057 39.5361 34.7996 39.1835 34.1928C38.831 33.586 38.4582 33.0091 38.0855 32.4634C37.4114 32.4136 36.7151 32.3837 36.01 32.3837C35.3049 32.3837 34.6093 32.413 33.9339 32.4628ZM30.6094 39.1112C31.3007 39.2571 32.0004 39.3667 32.7051 39.4395C32.4631 39.0619 32.2218 38.6838 31.9899 38.2863C31.7681 37.8988 31.5463 37.5114 31.3448 37.1239C31.0529 37.7992 30.8109 38.4664 30.6094 39.1112ZM40.0295 38.2764C39.7976 38.6738 39.5657 39.0513 39.3345 39.4195C40.0498 39.3367 40.7596 39.2173 41.4605 39.0619C41.2417 38.3911 40.9861 37.7309 40.6948 37.084C40.4831 37.4815 40.2614 37.8789 40.0295 38.2764ZM28.8865 33.4066C26.8312 34.1224 25.5923 35.1646 25.5923 35.9807C25.6315 36.2433 25.7264 36.4961 25.8715 36.7246C26.0167 36.9532 26.2093 37.153 26.4382 37.3126C27.2246 37.9238 28.1264 38.3954 29.0981 38.7037C29.2794 38.766 29.4709 38.8134 29.6623 38.8732C29.9718 37.8956 30.3452 36.9364 30.7806 36.0007C30.3444 35.081 29.9742 34.1357 29.6724 33.1711C29.4005 33.2384 29.1386 33.3169 28.8865 33.4066ZM41.2489 35.9807C41.696 36.9045 42.0787 37.8538 42.3948 38.8227C42.5262 38.7828 42.657 38.743 42.7777 38.7031C45.0243 37.968 46.4176 36.8448 46.425 35.9701C46.425 35.1553 45.1356 34.1012 43.0298 33.386C42.8181 33.3169 42.5869 33.2471 42.3557 33.1773C42.0505 34.1322 41.6808 35.0685 41.2489 35.9807ZM40.02 33.695C40.2519 34.0925 40.4737 34.4806 40.6746 34.8681C40.9545 34.2348 41.1966 33.5878 41.3999 32.93C40.7155 32.7763 40.0227 32.657 39.3244 32.5724C39.5664 32.9394 39.7983 33.3075 40.02 33.695ZM30.6195 32.9219C30.8217 33.558 31.063 34.204 31.3448 34.8693C31.547 34.4818 31.7681 34.0944 31.9899 33.7069C32.2116 33.3194 32.4428 32.9419 32.6848 32.5737C31.9595 32.6615 31.2747 32.7805 30.6195 32.9219ZM37.2186 28.6982C37.0474 28.8471 36.8762 29.0059 36.7043 29.1654C37.404 29.9126 38.047 30.7036 38.6288 31.5327C39.6541 31.6242 40.671 31.7836 41.6715 32.0099C41.712 31.861 41.7389 31.7115 41.7726 31.5626C42.2445 29.2769 41.954 27.5276 41.1882 27.0909C41.0201 27.0037 40.8295 26.9606 40.6368 26.9663C39.8138 26.9626 38.5506 27.555 37.2186 28.6963V28.6982ZM30.7705 27.1158C30.0553 27.5232 29.7729 29.1529 30.1962 31.2997C30.2467 31.5283 30.2973 31.7563 30.3573 31.9949C31.3592 31.777 32.3757 31.6209 33.4 31.5277C33.9839 30.6976 34.6304 29.9065 35.3346 29.1604C35.2241 29.0508 35.1027 28.9517 34.9922 28.852C33.5901 27.6267 32.242 26.98 31.3616 26.98C31.1547 26.9735 30.95 27.0205 30.7705 27.1158ZM37.3595 31.4486C36.944 30.893 36.4957 30.3589 36.0168 29.8488C35.5638 30.3353 35.1101 30.8723 34.6686 31.4486C35.1122 31.4287 35.555 31.4187 36.0087 31.4187C36.4623 31.4187 36.916 31.4268 37.3595 31.4486ZM33.9946 36.0206C33.9851 35.7652 34.0303 35.5105 34.1275 35.2713C34.2247 35.032 34.3721 34.8128 34.5612 34.6263C34.7502 34.4398 34.9772 34.2896 35.2292 34.1843C35.4812 34.079 35.7532 34.0207 36.0296 34.0127C36.5873 34.0303 37.1147 34.2515 37.4961 34.6279C37.8776 35.0043 38.082 35.5051 38.0646 36.0206C38.0826 36.5365 37.8783 37.0379 37.4966 37.4147C37.1149 37.7915 36.5871 38.0129 36.0289 38.0303C35.7523 38.0223 35.4802 37.964 35.2281 37.8586C34.9761 37.7531 34.749 37.6028 34.56 37.416C34.371 37.2293 34.2237 37.0099 34.1267 36.7704C34.0296 36.531 33.9847 36.2761 33.9946 36.0206Z" fill="#22D3EE"/>
<defs>
<filter id="filter0_f_567_1280" x="0.598575" y="2.59857" width="70.8029" height="66.8029" filterUnits="userSpaceOnUse" color-interpolation-filters="sRGB">
<feFlood flood-opacity="0" result="BackgroundImageFix"/>
<feBlend mode="normal" in="SourceGraphic" in2="BackgroundImageFix" result="shape"/>
<feGaussianBlur stdDeviation="5.70071" result="effect1_foregroundBlur_567_1280"/>
</filter>
<linearGradient id="paint0_linear_567_1280" x1="12" y1="35.9997" x2="60" y2="35.9997" gradientUnits="userSpaceOnUse">
<stop stop-color="#4DBCD6"/>
<stop offset="1" stop-color="#4DBCD6" stop-opacity="0.24"/>
</linearGradient>
</defs>
</svg>
